<?xml version="1.0" encoding="UTF-8" standalone="no"?>
<svg
   id="Layer_1"
   viewBox="0 0 128 128"
   version="1.1"
   xmlns="http://www.w3.org/2000/svg">
  <path
     id="rect1715"
     d="m 22.4,12.8 h 83.2 a 9.6,9.6 0 0 1 9.6,9.6 v 83.2 a 9.6,9.6 0 0 1 -9.6,9.6 H 22.4 a 9.6,9.6 0 0 1 -9.6,-9.6 V 22.4 a 9.6,9.6 0 0 1 9.6,-9.6 z"
     fill="#ffffff" />
  <path
     fill="#2d3e50"
     d="m 28.195065,46.040173 c 2.024697,0.121709 4.055788,0.18384 6.03664,0.184864 h 0.001 c 1.980339,-10e-4 4.011174,-0.06315 6.035488,-0.184864 a 3.4977728,3.4977728 0 0 0 3.28704,-3.312493 c 0.104832,-1.999513 0.158656,-4.0136 0.160064,-5.988057 -0.0014,-1.970874 -0.05523,-3.984455 -0.159936,-5.984224 a 3.4982912,3.4982912 0 0 0 -3.286797,-3.313517 c -2.024698,-0.121709 -4.055789,-0.18384 -6.037664,-0.184864 -1.980467,0.001 -4.011303,0.06315 -6.035488,0.184864 a 3.4980864,3.4980864 0 0 0 -3.287181,3.312493 c -0.104704,1.998233 -0.158528,4.012326 -0.159936,5.988057 0.0014,1.973434 0.05523,3.987008 0.159936,5.984224 a 3.4982912,3.4982912 0 0 0 3.28681,3.313517 z m 6.037536,-3.40864 c -1.880999,-7.68e-4 -3.811476,-0.05906 -5.740039,-0.173357 -0.09869,-1.90976 -0.149453,-3.832825 -0.150861,-5.715744 0.0014,-1.88471 0.05216,-3.808 0.150861,-5.71856 1.927917,-0.114297 3.858266,-0.172595 5.73888,-0.173357 1.880871,7.68e-4 3.8112,0.05906 5.739655,0.173357 0.09869,1.90976 0.149452,3.832826 0.15086,5.715744 -0.0014,1.884711 -0.05216,3.808 -0.15086,5.71856 -1.928301,0.114298 -3.858778,0.172595 -5.738496,0.173363 z" />
  <path
     fill="#2d3e50"
     d="m 40.268601,81.959827 c -2.024698,-0.121708 -4.055789,-0.18384 -6.037664,-0.184864 -1.980468,0.001 -4.011303,0.06315 -6.035488,0.184864 a 3.4980864,3.4980864 0 0 0 -3.287181,3.312493 c -0.104704,1.998234 -0.158528,4.012327 -0.159936,5.988058 0.0014,1.97343 0.05523,3.987006 0.159936,5.984222 a 3.4982912,3.4982912 0 0 0 3.286797,3.31352 c 2.024697,0.1217 4.055788,0.18384 6.03664,0.18486 h 0.001 c 1.980339,-8e-4 4.011174,-0.0632 6.035488,-0.18486 a 3.4977728,3.4977728 0 0 0 3.28704,-3.312496 c 0.104832,-1.999512 0.158656,-4.0136 0.160064,-5.988056 -0.0014,-1.970873 -0.05523,-3.984454 -0.159936,-5.984224 a 3.4982912,3.4982912 0 0 0 -3.286784,-3.313517 z m -6.036,15.189661 c -1.880999,-7.68e-4 -3.811476,-0.05904 -5.740039,-0.17336 -0.09869,-1.90976 -0.149453,-3.832824 -0.150861,-5.715744 0.0014,-1.88471 0.05216,-3.808 0.150861,-5.71856 1.927917,-0.114297 3.858266,-0.172595 5.73888,-0.173357 1.880871,7.68e-4 3.8112,0.05906 5.739655,0.173357 0.09869,1.90976 0.149452,3.832826 0.15086,5.715744 -0.0014,1.884712 -0.05216,3.808 -0.15086,5.71856 -1.928301,0.114288 -3.858778,0.172592 -5.738496,0.173352 z" />
  <rect fill="#2d3e50" x="55.84972" y="34.777439" width="47.207699" height="3.9274304" />
  <rect fill="#2d3e50" x="55.84972" y="89.29512" width="47.207699" height="3.9274304" />
  <path
     fill="#1d75b8"
     d="m 40.268601,54.700723 c -2.02624,-0.121708 -4.057325,-0.18384 -6.037536,-0.184608 -1.979188,7.68e-4 -4.009895,0.0629 -6.035616,0.184608 a 3.4981312,3.4981312 0 0 0 -3.287181,3.312749 c -0.104704,1.997978 -0.158528,4.012071 -0.159936,5.988058 0.0014,1.973689 0.05523,3.987008 0.159936,5.983968 a 3.498336,3.498336 0 0 0 3.286797,3.313773 c 2.02624,0.1217 4.057324,0.18384 6.036768,0.184608 h 7.68e-4 c 1.979059,-7.68e-4 4.009766,-0.0629 6.035616,-0.184608 a 3.4978112,3.4978112 0 0 0 3.28704,-3.312749 c 0.104832,-1.999514 0.158656,-4.0136 0.160064,-5.987802 -0.0014,-1.971129 -0.05523,-3.98471 -0.159936,-5.984224 a 3.498336,3.498336 0 0 0 -3.286784,-3.313773 z" />
  <path fill="#1d75b8" d="m 66.64542,65.963719 h -8.755456 a 1.9644928,1.9644928 0 0 1 0,-3.927431 h 8.755456 a 1.9644928,1.9644928 0 0 1 0,3.927431 z" />
  <path fill="#1d75b8" d="m 83.993861,65.963719 h -8.755475 a 1.9644928,1.9644928 0 0 1 0,-3.927431 h 8.755456 a 1.9644928,1.9644928 0 0 1 0,3.927431 z" />
  <path fill="#1d75b8" d="m 101.34231,65.963719 h -8.755585 a 1.9644928,1.9644928 0 0 1 0,-3.927431 h 8.755585 a 1.9644928,1.9644928 0 0 1 0,3.927431 z" />
</svg>

